<?xml version="1.0" encoding="iso-8859-1"?>
<!-- Generator: Adobe Illustrator 16.0.0, SVG Export Plug-In . SVG Version: 6.00 Build 0)  -->
<!DOCTYPE svg PUBLIC "-//W3C//DTD SVG 1.1//EN" "http://www.w3.org/Graphics/SVG/1.1/DTD/svg11.dtd">
<svg version="1.1" id="Capa_1" xmlns="http://www.w3.org/2000/svg" xmlns:xlink="http://www.w3.org/1999/xlink" x="0px" y="0px"
	 width="178.546px" height="178.546px" viewBox="0 0 178.546 178.546" style="enable-background:new 0 0 178.546 178.546;"
	 xml:space="preserve">
<g>
	<g>
		<circle cx="37.245" cy="18.015" r="18.015"/>
		<path d="M175.423,166.776l-12.065-27.743l-3.325-32.1c1.295-1.827,2.083-4.049,2.083-6.468V47.623
			c0-6.186-5.023-11.207-11.207-11.207c-6.189,0-11.206,5.021-11.206,11.207v3.532l-16.285,22.475L93.419,80
			c-1.755,0.369-3.167,1.412-4.147,2.755c-0.979-1.343-2.391-2.38-4.147-2.755l-30.001-6.371L38.843,51.155v-3.532
			c0-6.186-5.021-11.207-11.207-11.207c-6.186,0-11.208,5.021-11.208,11.207v52.843c0,2.419,0.786,4.641,2.084,6.476l-3.329,32.092
			L3.122,166.776c-1.855,4.258,0.101,9.209,4.354,11.063c1.093,0.476,2.224,0.703,3.346,0.703c3.245,0,6.336-1.896,7.709-5.057
			l12.585-28.926c0.348-0.794,0.567-1.632,0.654-2.484l0.833-8.001l3.337,7.969l5.861,29.725c0.79,3.997,4.303,6.778,8.237,6.778
			c0.539,0,1.087-0.05,1.636-0.165c4.55-0.893,7.514-5.312,6.618-9.872l-6.03-30.555c-0.112-0.553-0.273-1.1-0.492-1.62L38.222,104
			c0.375-1.121,0.622-2.298,0.622-3.535V75.03l6.522,8.998c1.021,1.401,2.519,2.383,4.214,2.741l32.635,6.922
			c0.493,0.11,0.979,0.159,1.46,0.159c2.252,0,4.299-1.144,5.598-2.915c1.3,1.771,3.346,2.915,5.598,2.915
			c0.481,0,0.968-0.049,1.461-0.159l32.637-6.922c1.694-0.358,3.194-1.34,4.212-2.741l6.522-8.998v25.436
			c0,1.237,0.248,2.414,0.612,3.524l-13.549,32.334c-0.217,0.52-0.383,1.066-0.492,1.62l-6.03,30.556
			c-0.893,4.558,2.068,8.979,6.621,9.871c0.55,0.115,1.095,0.164,1.637,0.164c3.934,0,7.447-2.779,8.237-6.78l5.858-29.724
			l3.34-7.967l0.83,8c0.089,0.854,0.306,1.698,0.655,2.483l12.587,28.926c1.378,3.163,4.465,5.056,7.709,5.056
			c1.122,0,2.25-0.224,3.344-0.7C175.325,175.979,177.281,171.021,175.423,166.776z"/>
		<path d="M141.3,0c9.95,0,18.014,8.065,18.014,18.016c0,9.949-8.063,18.014-18.014,18.014c-9.954,0-18.02-8.065-18.02-18.014
			C123.281,8.065,131.346,0,141.3,0z"/>
	</g>
</g>
<g>
</g>
<g>
</g>
<g>
</g>
<g>
</g>
<g>
</g>
<g>
</g>
<g>
</g>
<g>
</g>
<g>
</g>
<g>
</g>
<g>
</g>
<g>
</g>
<g>
</g>
<g>
</g>
<g>
</g>
</svg>
